# xmcd
#
# Track frame offsets:
#	150
#	12183
#	30392
#	46809
#	64760
#	84539
#	103316
#	119569
#	136059
#	151765
#	174585
#	185534
#	199755
#	210720
#	231164
#	252086
#	268412
#	286673
#	304574
#
# Disc length: 4350 seconds
#
# Revision: 1
# Processed by: cddbd v1.5.1PL0 Copyright (c) Steve Scherf et al.
# Submitted via: audiograbber 1.83.01
#
DISCID=0310fc13
DTITLE=Various Artist - TU213
DYEAR=1900
DGENRE=Karaoke
TTITLE0=4 Wheel Drive - John Michael Montgomery
TTITLE1=Beer, Bait and Ammo - Sammy Kershaw
TTITLE2=Break The Record - Warren Brothers
TTITLE3=Don't Come The Cowboy With Me Sonny Jim - Kelly Willis
TTITLE4=Easy Lovin' You - Chalee Tennison
TTITLE5=I Can't Only Imagine - MercyMe
TTITLE6=Ka Ching - Shania Twain
TTITLE7=Kay - Daryle Singletary
TTITLE8=Long Slow Kisses - Jeff Bates
TTITLE9=More Love - Dixie Chicks
TTITLE10=Never Wear Panties To A Party - Kacey Jones
TTITLE11=Night Birds - Royal Wade Kimes
TTITLE12=Potato's In The Paddy Wagon - New Main Street Singers
TTITLE13=Six O' Clock News - Kathleen Edwards
TTITLE14=Streets Of Heaven - Sherrie Austin
TTITLE15=Tennessee River Run - Darryl Worley
TTITLE16=This One's For The Girls - Mariana McBride
TTITLE17=Tough Little Boys - Gary Allan
TTITLE18=You Look Good In My Shirt - Keith Urban
EXTD=
EXTT0=
EXTT1=
EXTT2=
EXTT3=
EXTT4=
EXTT5=
EXTT6=
EXTT7=
EXTT8=
EXTT9=
EXTT10=
EXTT11=
EXTT12=
EXTT13=
EXTT14=
EXTT15=
EXTT16=
EXTT17=
EXTT18=
PLAYORDER=
